<svg xmlns="http://www.w3.org/2000/svg" viewBox="0 0 512 512">
  <defs>
    <radialGradient id="skyGrad" cx="50%" cy="50%" r="60%">
      <stop offset="0%" style="stop-color:#87CEEB"/>
      <stop offset="100%" style="stop-color:#5BA3D9"/>
    </radialGradient>
  </defs>

  <!-- Background -->
  <circle cx="256" cy="256" r="256" fill="url(#skyGrad)"/>

  <!-- Cloud highlights -->
  <ellipse cx="180" cy="120" rx="60" ry="30" fill="rgba(255,255,255,0.2)" transform="rotate(-17 180 120)"/>
  <ellipse cx="340" cy="150" rx="50" ry="25" fill="rgba(255,255,255,0.2)" transform="rotate(11 340 150)"/>

  <!-- Cat Body -->
  <ellipse cx="256" cy="340" rx="130" ry="120" fill="#FFB366"/>
  <ellipse cx="256" cy="360" rx="90" ry="85" fill="#FFF5E6"/>

  <!-- Tail -->
  <path d="M370,380 Q450,350 430,280" stroke="#FFB366" stroke-width="40" stroke-linecap="round" fill="none"/>
  <path d="M435,300 Q445,270 430,250" stroke="#E6944D" stroke-width="35" stroke-linecap="round" fill="none"/>

  <!-- Head -->
  <ellipse cx="256" cy="200" rx="120" ry="110" fill="#FFB366"/>

  <!-- Left Ear -->
  <polygon points="150,160 120,60 200,120" fill="#FFB366"/>
  <polygon points="155,145 135,80 190,125" fill="#FFB8C6"/>

  <!-- Right Ear -->
  <polygon points="362,160 392,60 312,120" fill="#FFB366"/>
  <polygon points="357,145 377,80 322,125" fill="#FFB8C6"/>

  <!-- Face -->
  <ellipse cx="256" cy="240" rx="70" ry="55" fill="#FFF5E6"/>
  <polygon points="256,100 246,160 256,155 266,160" fill="#E6944D"/>

  <!-- Glasses -->
  <circle cx="195" cy="190" r="50" fill="rgba(200,230,255,0.4)" stroke="#2C3E50" stroke-width="8"/>
  <circle cx="317" cy="190" r="50" fill="rgba(200,230,255,0.4)" stroke="#2C3E50" stroke-width="8"/>
  <line x1="245" y1="190" x2="267" y2="190" stroke="#2C3E50" stroke-width="6"/>
  <line x1="145" y1="185" x2="110" y2="170" stroke="#2C3E50" stroke-width="6"/>
  <line x1="367" y1="185" x2="402" y2="170" stroke="#2C3E50" stroke-width="6"/>

  <!-- Eyes -->
  <ellipse cx="195" cy="190" rx="28" ry="30" fill="white"/>
  <ellipse cx="317" cy="190" rx="28" ry="30" fill="white"/>
  <ellipse cx="195" cy="190" rx="12" ry="22" fill="#2C3E50"/>
  <ellipse cx="317" cy="190" rx="12" ry="22" fill="#2C3E50"/>
  <circle cx="202" cy="182" r="8" fill="white"/>
  <circle cx="324" cy="182" r="8" fill="white"/>
  <circle cx="190" cy="198" r="4" fill="white"/>
  <circle cx="312" cy="198" r="4" fill="white"/>

  <!-- Nose -->
  <polygon points="256,235 245,250 267,250" fill="#FF8080"/>
  <ellipse cx="256" cy="242" rx="5" ry="4" fill="#FFB0B0"/>

  <!-- Mouth -->
  <line x1="256" y1="250" x2="256" y2="270" stroke="#E6944D" stroke-width="4" stroke-linecap="round"/>
  <path d="M238,270 A18,18 0 0,0 251,282" stroke="#E6944D" stroke-width="4" stroke-linecap="round" fill="none"/>
  <path d="M274,270 A18,18 0 0,1 261,282" stroke="#E6944D" stroke-width="4" stroke-linecap="round" fill="none"/>

  <!-- Whiskers -->
  <g stroke="#666" stroke-width="2">
    <line x1="180" y1="250" x2="100" y2="240"/>
    <line x1="180" y1="260" x2="100" y2="265"/>
    <line x1="180" y1="270" x2="100" y2="290"/>
    <line x1="332" y1="250" x2="412" y2="240"/>
    <line x1="332" y1="260" x2="412" y2="265"/>
    <line x1="332" y1="270" x2="412" y2="290"/>
  </g>

  <!-- Left Paw -->
  <ellipse cx="170" cy="420" rx="45" ry="35" fill="#FFB366" transform="rotate(-11 170 420)"/>
  <ellipse cx="170" cy="425" rx="20" ry="15" fill="#FFB8C6"/>
  <ellipse cx="155" cy="410" rx="8" ry="7" fill="#FFB8C6"/>
  <ellipse cx="170" cy="405" rx="8" ry="7" fill="#FFB8C6"/>
  <ellipse cx="185" cy="410" rx="8" ry="7" fill="#FFB8C6"/>

  <!-- Right Paw -->
  <ellipse cx="342" cy="420" rx="45" ry="35" fill="#FFB366" transform="rotate(11 342 420)"/>
  <ellipse cx="342" cy="425" rx="20" ry="15" fill="#FFB8C6"/>
  <ellipse cx="327" cy="410" rx="8" ry="7" fill="#FFB8C6"/>
  <ellipse cx="342" cy="405" rx="8" ry="7" fill="#FFB8C6"/>
  <ellipse cx="357" cy="410" rx="8" ry="7" fill="#FFB8C6"/>

  <!-- Book -->
  <polygon points="160,380 256,410 352,380 352,440 256,470 160,440" fill="#4CAF50"/>
  <polygon points="168,385 256,410 256,462 168,435" fill="#FFFEF5"/>
  <polygon points="256,410 256,470 262,468 262,408" fill="#388E3C"/>
  <g stroke="#ddd" stroke-width="1">
    <line x1="180" y1="398" x2="245" y2="418"/>
    <line x1="180" y1="409" x2="245" y2="427"/>
    <line x1="180" y1="420" x2="245" y2="436"/>
    <line x1="180" y1="431" x2="245" y2="445"/>
  </g>
  <text x="304" y="420" font-family="Arial, sans-serif" font-size="24" font-weight="bold" fill="white" text-anchor="middle">ABC</text>
</svg>